<svg width="48" height="48" xmlns="http://www.w3.org/2000/svg">
 <title/>

 <g>
  <title>background</title>
  <rect fill="none" id="canvas_background" height="402" width="582" y="-1" x="-1"/>
 </g>
 <g>
  <title>Layer 1</title>
  <path fill="#fcfcf4" id="svg_1" d="m24,21a10,10 0 1 1 10,-10a10,10 0 0 1 -10,10zm0,-16a6,6 0 1 0 6,6a6,6 0 0 0 -6,-6z"/>
  <path fill="#ffffff" id="svg_2" d="m42,47l-36,0a2,2 0 0 1 -2,-2l0,-6a16,16 0 0 1 16,-16l8,0a16,16 0 0 1 16,16l0,6a2,2 0 0 1 -2,2zm-34,-4l32,0l0,-4a12,12 0 0 0 -12,-12l-8,0a12,12 0 0 0 -12,12l0,4z"/>
 </g>
</svg>