<svg width="512" height="512" xmlns="http://www.w3.org/2000/svg">

 <g>
  <title>background</title>
  <rect fill="none" id="canvas_background" height="402" width="582" y="-1" x="-1"/>
 </g>
 <g>
  <title>Layer 1</title>
  <path fill="#fcfcfc" id="svg_1" d="m319.967,503.497l0,-67.34c74.368,-26.425 127.933,-96.7 127.933,-180.157c0,-83.426 -53.564,-153.732 -127.934,-180.156l0,-67.341c110.288,28.485 191.901,128.309 191.901,247.497c0,119.188 -81.613,219.043 -191.9,247.497zm-63.967,8.371l-127.934,-127.932l-95.95,0c-17.679,0 -31.983,-14.307 -31.983,-31.983l0,-191.903c0,-17.679 14.306,-31.983 31.983,-31.983l95.95,0l127.934,-127.934c0,0 31.982,-3.998 31.982,31.983c0,72.899 0,382.053 0,447.769c0.001,35.981 -31.982,31.983 -31.982,31.983zm-31.983,-383.802l-63.967,63.967l-95.951,0l0,127.934l95.951,0l63.967,63.969l0,-255.87l0,0zm191.899,127.934c0,59.532 -40.854,109.132 -95.949,123.404l0,-68.309c19.053,-11.087 31.982,-31.482 31.982,-55.096c0,-23.612 -12.931,-44.008 -31.982,-55.097l0,-68.308c55.096,14.275 95.949,63.875 95.949,123.406z"/>
 </g>
</svg>